<svg xmlns="http://www.w3.org/2000/svg" viewBox="0 0 1200 800" width="1200" height="800">
  <defs>
    <filter id="glow-cyan" x="-20%" y="-20%" width="140%" height="140%">
      <feGaussianBlur in="SourceGraphic" stdDeviation="3" result="blur"/>
      <feMerge><feMergeNode in="blur"/><feMergeNode in="SourceGraphic"/></feMerge>
    </filter>
    <filter id="glow-purple" x="-20%" y="-20%" width="140%" height="140%">
      <feGaussianBlur in="SourceGraphic" stdDeviation="2.5" result="blur"/>
      <feMerge><feMergeNode in="blur"/><feMergeNode in="SourceGraphic"/></feMerge>
    </filter>
    <linearGradient id="grad-cyan" x1="0%" y1="0%" x2="100%" y2="0%">
      <stop offset="0%" stop-color="#06b6d4" stop-opacity="0.15"/>
      <stop offset="100%" stop-color="#0891b2" stop-opacity="0.05"/>
    </linearGradient>
    <linearGradient id="grad-purple" x1="0%" y1="0%" x2="100%" y2="0%">
      <stop offset="0%" stop-color="#8b5cf6" stop-opacity="0.15"/>
      <stop offset="100%" stop-color="#7c3aed" stop-opacity="0.05"/>
    </linearGradient>
    <linearGradient id="grad-green" x1="0%" y1="0%" x2="100%" y2="0%">
      <stop offset="0%" stop-color="#22c55e" stop-opacity="0.12"/>
      <stop offset="100%" stop-color="#16a34a" stop-opacity="0.04"/>
    </linearGradient>
    <linearGradient id="grad-surface" x1="0%" y1="0%" x2="0%" y2="100%">
      <stop offset="0%" stop-color="#111827" stop-opacity="0.8"/>
      <stop offset="100%" stop-color="#0a0a0f" stop-opacity="0.9"/>
    </linearGradient>
    <linearGradient id="title-grad" x1="0%" y1="0%" x2="100%" y2="0%">
      <stop offset="0%" stop-color="#06b6d4"/>
      <stop offset="50%" stop-color="#8b5cf6"/>
      <stop offset="100%" stop-color="#06b6d4"/>
    </linearGradient>
    <linearGradient id="arrow-grad" x1="0%" y1="0%" x2="0%" y2="100%">
      <stop offset="0%" stop-color="#06b6d4"/>
      <stop offset="100%" stop-color="#06b6d4" stop-opacity="0.3"/>
    </linearGradient>
    <marker id="arrowhead-cyan" markerWidth="8" markerHeight="6" refX="8" refY="3" orient="auto">
      <polygon points="0 0, 8 3, 0 6" fill="#06b6d4"/>
    </marker>
    <marker id="arrowhead-purple" markerWidth="8" markerHeight="6" refX="8" refY="3" orient="auto">
      <polygon points="0 0, 8 3, 0 6" fill="#8b5cf6"/>
    </marker>
    <marker id="arrowhead-green" markerWidth="8" markerHeight="6" refX="8" refY="3" orient="auto">
      <polygon points="0 0, 8 3, 0 6" fill="#22c55e"/>
    </marker>
    <marker id="arrowhead-gray" markerWidth="8" markerHeight="6" refX="8" refY="3" orient="auto">
      <polygon points="0 0, 8 3, 0 6" fill="#475569"/>
    </marker>
  </defs>

  <style>
    text { font-family: Inter, system-ui, -apple-system, sans-serif; }
    .title { font-size: 11px; font-weight: 700; fill: #94a3b8; letter-spacing: 3px; text-transform: uppercase; }
    .section-label { font-size: 13px; font-weight: 700; letter-spacing: 1.5px; text-transform: uppercase; }
    .box-title { font-size: 12px; font-weight: 600; }
    .box-sub { font-size: 10px; fill: #64748b; }
    .box-detail { font-size: 9px; fill: #475569; }
    .stat { font-size: 10px; font-weight: 600; }
    .stat-label { font-size: 8px; fill: #475569; text-transform: uppercase; letter-spacing: 1px; }
    .lifecycle-label { font-size: 10px; font-weight: 600; }
    .lifecycle-sub { font-size: 8px; fill: #64748b; }
    .page-label { font-size: 10px; font-weight: 500; fill: #cbd5e1; }
    .tech-label { font-size: 9px; fill: #475569; }
  </style>

  <!-- Background -->
  <rect width="1200" height="800" fill="#0a0a0f" rx="0"/>
  <!-- Subtle grid -->
  <pattern id="grid" width="40" height="40" patternUnits="userSpaceOnUse">
    <path d="M 40 0 L 0 0 0 40" fill="none" stroke="#1e293b" stroke-width="0.3" opacity="0.4"/>
  </pattern>
  <rect width="1200" height="800" fill="url(#grid)"/>

  <!-- Title -->
  <text x="600" y="28" text-anchor="middle" class="title" fill="url(#title-grad)">OBSCURA  --  SYSTEM ARCHITECTURE</text>

  <!-- ═══════════════ FRONTEND SECTION ═══════════════ -->
  <rect x="30" y="45" width="1140" height="155" rx="12" fill="url(#grad-cyan)" stroke="#06b6d4" stroke-width="0.8" stroke-opacity="0.3"/>
  <text x="54" y="68" class="section-label" fill="#06b6d4">FRONTEND</text>
  <text x="170" y="68" class="box-sub">React 19 + TypeScript + Vite + Tailwind CSS</text>

  <!-- Page boxes -->
  <g transform="translate(54, 82)">
    <!-- Browse -->
    <rect x="0" y="0" width="150" height="48" rx="8" fill="#111827" stroke="#1e293b" stroke-width="0.8"/>
    <circle cx="16" cy="15" r="4" fill="none" stroke="#06b6d4" stroke-width="1.2"/>
    <line x1="19" y1="18" x2="22" y2="21" stroke="#06b6d4" stroke-width="1.2"/>
    <text x="30" y="18" class="page-label">Browse Auctions</text>
    <text x="16" y="34" class="box-detail">Search, filter, on-chain lookup</text>

    <!-- Create -->
    <rect x="164" y="0" width="150" height="48" rx="8" fill="#111827" stroke="#1e293b" stroke-width="0.8"/>
    <line x1="180" y1="11" x2="180" y2="21" stroke="#06b6d4" stroke-width="1.5"/>
    <line x1="175" y1="16" x2="185" y2="16" stroke="#06b6d4" stroke-width="1.5"/>
    <text x="194" y="18" class="page-label">Create Auction</text>
    <text x="180" y="34" class="box-detail">Templates, live preview, QR</text>

    <!-- Auction Detail -->
    <rect x="328" y="0" width="170" height="48" rx="8" fill="#111827" stroke="#1e293b" stroke-width="0.8"/>
    <rect x="344" y="10" width="10" height="12" rx="2" fill="none" stroke="#8b5cf6" stroke-width="1"/>
    <text x="360" y="18" class="page-label">Auction Detail</text>
    <text x="344" y="34" class="box-detail">Phase panels, proofs, state machine</text>

    <!-- My Activity -->
    <rect x="512" y="0" width="150" height="48" rx="8" fill="#111827" stroke="#1e293b" stroke-width="0.8"/>
    <circle cx="528" cy="16" r="5" fill="none" stroke="#22c55e" stroke-width="1"/>
    <text x="538" y="18" class="page-label">My Activity</text>
    <text x="528" y="34" class="box-detail">Records: bids, escrow, certs</text>

    <!-- Dashboard -->
    <rect x="676" y="0" width="140" height="48" rx="8" fill="#111827" stroke="#1e293b" stroke-width="0.8"/>
    <rect x="692" y="11" width="3" height="10" rx="1" fill="#06b6d4" opacity="0.7"/>
    <rect x="697" y="8" width="3" height="13" rx="1" fill="#06b6d4" opacity="0.5"/>
    <rect x="702" y="13" width="3" height="8" rx="1" fill="#06b6d4" opacity="0.7"/>
    <text x="712" y="18" class="page-label">Dashboard</text>
    <text x="692" y="34" class="box-detail">Analytics, activity feed</text>

    <!-- Learn / Docs -->
    <rect x="830" y="0" width="130" height="48" rx="8" fill="#111827" stroke="#1e293b" stroke-width="0.8"/>
    <text x="856" y="18" class="page-label">Learn + Docs</text>
    <text x="846" y="34" class="box-detail">Vickrey theory, privacy FAQ</text>
  </g>

  <!-- Tech stack bar -->
  <g transform="translate(54, 152)">
    <text x="0" y="0" class="tech-label">Zustand</text>
    <circle cx="52" cy="-3" r="1.5" fill="#334155"/>
    <text x="62" y="0" class="tech-label">Framer Motion</text>
    <circle cx="142" cy="-3" r="1.5" fill="#334155"/>
    <text x="152" y="0" class="tech-label">Recharts</text>
    <circle cx="202" cy="-3" r="1.5" fill="#334155"/>
    <text x="212" y="0" class="tech-label">QR Code</text>
    <circle cx="262" cy="-3" r="1.5" fill="#334155"/>
    <text x="272" y="0" class="tech-label">react-hot-toast</text>
  </g>

  <!-- Hooks and Stores -->
  <g transform="translate(660, 152)">
    <text x="0" y="0" class="tech-label" fill="#06b6d4">Hooks:</text>
    <text x="40" y="0" class="tech-label">useAuction  useTransaction  useRecords  useCountdown</text>
    <text x="0" y="14" class="tech-label" fill="#06b6d4">Stores:</text>
    <text x="40" y="14" class="tech-label">walletStore  auctionStore  recordStore</text>
  </g>

  <!-- ═══════════════ WALLET CONNECTION LAYER ═══════════════ -->
  <rect x="340" y="210" width="520" height="38" rx="10" fill="#111827" stroke="#8b5cf6" stroke-width="0.8" stroke-opacity="0.5"/>
  <rect x="340" y="210" width="520" height="38" rx="10" fill="url(#grad-purple)" opacity="0.5"/>
  <!-- Shield icon -->
  <path d="M365,222 L365,234 C365,238 370,242 375,244 C380,242 385,238 385,234 L385,222 L375,218 Z" fill="none" stroke="#8b5cf6" stroke-width="1.2"/>
  <text x="394" y="233" class="box-title" fill="#c4b5fd">Shield Wallet</text>
  <text x="500" y="233" class="box-sub">5 Adapters (Shield, Leo, Puzzle, Fox, Soter) -- Delegated Proving -- Auto-decrypt</text>

  <!-- Arrow: Frontend → Wallet -->
  <line x1="600" y1="200" x2="600" y2="210" stroke="#06b6d4" stroke-width="1.2" marker-end="url(#arrowhead-cyan)"/>

  <!-- Arrow: Wallet → Smart Contracts -->
  <line x1="600" y1="248" x2="600" y2="275" stroke="#8b5cf6" stroke-width="1.2" marker-end="url(#arrowhead-purple)"/>
  <text x="612" y="264" class="box-detail" fill="#8b5cf6">ZK Proofs</text>

  <!-- Arrow: Frontend → Backend -->
  <path d="M 150 200 L 150 210 Q 150 220 150 225 L 150 285" stroke="#06b6d4" stroke-width="1" stroke-dasharray="4,3" marker-end="url(#arrowhead-cyan)" opacity="0.6"/>
  <text x="158" y="250" class="box-detail" fill="#06b6d4">REST API</text>

  <!-- ═══════════════ BACKEND SECTION ═══════════════ -->
  <rect x="30" y="285" width="290" height="235" rx="12" fill="url(#grad-green)" stroke="#22c55e" stroke-width="0.8" stroke-opacity="0.25"/>
  <text x="54" y="310" class="section-label" fill="#22c55e">BACKEND</text>
  <text x="142" y="310" class="box-sub">Express + TypeScript</text>

  <!-- Backend components -->
  <g transform="translate(50, 325)">
    <rect x="0" y="0" width="250" height="34" rx="6" fill="#111827" stroke="#1e293b" stroke-width="0.6"/>
    <circle cx="14" cy="17" r="4" fill="#22c55e" opacity="0.3"/>
    <circle cx="14" cy="17" r="2" fill="#22c55e"/>
    <text x="26" y="14" class="box-title" fill="#d1d5db">Auction Indexer</text>
    <text x="26" y="26" class="box-detail">sync.ts -- Polls Explorer API for on-chain state</text>

    <rect x="0" y="42" width="250" height="34" rx="6" fill="#111827" stroke="#1e293b" stroke-width="0.6"/>
    <rect x="10" y="52" width="8" height="10" rx="2" fill="none" stroke="#eab308" stroke-width="0.8"/>
    <line x1="14" y1="55" x2="14" y2="59" stroke="#eab308" stroke-width="0.8"/>
    <text x="26" y="56" class="box-title" fill="#d1d5db">Encrypted Storage</text>
    <text x="26" y="68" class="box-detail">AES-256-GCM -- Per-column key derivation -- HMAC lookup</text>

    <rect x="0" y="84" width="250" height="34" rx="6" fill="#111827" stroke="#1e293b" stroke-width="0.6"/>
    <path d="M10,98 L18,98 M10,102 L16,102 M10,106 L18,106" stroke="#06b6d4" stroke-width="0.8"/>
    <text x="26" y="98" class="box-title" fill="#d1d5db">REST API</text>
    <text x="26" y="110" class="box-detail">Rate limited -- CORS allowlist -- Helmet headers</text>

    <rect x="0" y="126" width="250" height="34" rx="6" fill="#111827" stroke="#1e293b" stroke-width="0.6"/>
    <circle cx="14" cy="143" r="3.5" fill="none" stroke="#a78bfa" stroke-width="0.8"/>
    <circle cx="14" cy="143" r="1.5" fill="#a78bfa"/>
    <text x="26" y="140" class="box-title" fill="#d1d5db">Upstash Redis</text>
    <text x="26" y="152" class="box-detail">KV storage -- Auctions, bids, events</text>
  </g>

  <!-- ═══════════════ SMART CONTRACTS SECTION ═══════════════ -->
  <rect x="340" y="285" width="480" height="235" rx="12" fill="url(#grad-purple)" stroke="#8b5cf6" stroke-width="0.8" stroke-opacity="0.3"/>
  <text x="364" y="310" class="section-label" fill="#8b5cf6">SMART CONTRACTS</text>
  <text x="500" y="310" class="box-sub">On-Chain Programs (Aleo Testnet)</text>

  <!-- Main contract: obscura_v3.aleo -->
  <rect x="360" y="322" width="280" height="120" rx="8" fill="#111827" stroke="#8b5cf6" stroke-width="0.8" stroke-opacity="0.5"/>
  <rect x="360" y="322" width="280" height="2" rx="1" fill="#8b5cf6" opacity="0.4"/>
  <text x="380" y="344" class="box-title" fill="#c4b5fd" font-size="13">obscura_v3.aleo</text>

  <!-- Stats grid -->
  <g transform="translate(380, 355)">
    <rect x="0" y="0" width="56" height="32" rx="4" fill="#1e1b4b" opacity="0.5"/>
    <text x="28" y="14" text-anchor="middle" class="stat" fill="#c4b5fd">17</text>
    <text x="28" y="26" text-anchor="middle" class="stat-label">Transitions</text>

    <rect x="64" y="0" width="56" height="32" rx="4" fill="#1e1b4b" opacity="0.5"/>
    <text x="92" y="14" text-anchor="middle" class="stat" fill="#c4b5fd">4</text>
    <text x="92" y="26" text-anchor="middle" class="stat-label">Records</text>

    <rect x="128" y="0" width="56" height="32" rx="4" fill="#1e1b4b" opacity="0.5"/>
    <text x="156" y="14" text-anchor="middle" class="stat" fill="#c4b5fd">13</text>
    <text x="156" y="26" text-anchor="middle" class="stat-label">Mappings</text>

    <rect x="192" y="0" width="56" height="32" rx="4" fill="#1e1b4b" opacity="0.5"/>
    <text x="220" y="14" text-anchor="middle" class="stat" fill="#c4b5fd">8</text>
    <text x="220" y="26" text-anchor="middle" class="stat-label">States</text>
  </g>

  <!-- Contract features -->
  <text x="380" y="410" class="box-detail" fill="#94a3b8">Commit-Reveal -- Vickrey (2nd-Price) -- Anti-Sniping -- Settlement Proofs</text>
  <text x="380" y="424" class="box-detail" fill="#94a3b8">UTXO Record Model -- BHP256 Commitments -- Selective Disclosure</text>

  <!-- Dependency: credits.aleo -->
  <rect x="660" y="322" width="146" height="55" rx="8" fill="#111827" stroke="#22c55e" stroke-width="0.6" stroke-opacity="0.4"/>
  <text x="680" y="344" class="box-title" fill="#86efac">credits.aleo</text>
  <text x="680" y="358" class="box-detail">Private ALEO transfers</text>
  <text x="680" y="370" class="box-detail">transfer_private_to_public</text>

  <!-- Dependency: test_usdcx -->
  <rect x="660" y="387" width="146" height="55" rx="8" fill="#111827" stroke="#eab308" stroke-width="0.6" stroke-opacity="0.4"/>
  <text x="680" y="408" class="box-title" fill="#fde68a">USDCx Stablecoin</text>
  <text x="680" y="422" class="box-detail">Public balance transfers</text>
  <text x="680" y="434" class="box-detail">transfer_public_as_signer</text>

  <!-- Arrows: obscura → dependencies -->
  <line x1="640" y1="350" x2="660" y2="350" stroke="#22c55e" stroke-width="0.8" stroke-opacity="0.5" marker-end="url(#arrowhead-green)"/>
  <line x1="640" y1="410" x2="660" y2="410" stroke="#eab308" stroke-width="0.8" stroke-opacity="0.5"/>

  <!-- Records list -->
  <g transform="translate(360, 452)">
    <text x="0" y="0" class="box-detail" fill="#8b5cf6">RECORDS:</text>
    <rect x="60" y="-10" width="82" height="16" rx="3" fill="#1e1b4b" opacity="0.4"/>
    <text x="66" y="1" class="box-detail" fill="#a78bfa">SealedBid</text>
    <rect x="150" y="-10" width="100" height="16" rx="3" fill="#1e1b4b" opacity="0.4"/>
    <text x="156" y="1" class="box-detail" fill="#a78bfa">EscrowReceipt</text>
    <rect x="258" y="-10" width="110" height="16" rx="3" fill="#1e1b4b" opacity="0.4"/>
    <text x="264" y="1" class="box-detail" fill="#a78bfa">WinnerCertificate</text>
    <rect x="376" y="-10" width="90" height="16" rx="3" fill="#1e1b4b" opacity="0.4"/>
    <text x="382" y="1" class="box-detail" fill="#a78bfa">SellerReceipt</text>
  </g>

  <!-- ═══════════════ COMMIT-REVEAL LIFECYCLE ═══════════════ -->
  <rect x="840" y="285" width="330" height="235" rx="12" fill="url(#grad-surface)" stroke="#334155" stroke-width="0.6"/>
  <text x="864" y="310" class="section-label" fill="#94a3b8">AUCTION LIFECYCLE</text>

  <!-- Phase 1: Place Bid -->
  <g transform="translate(865, 325)">
    <circle cx="10" cy="12" r="8" fill="#22c55e" opacity="0.15" stroke="#22c55e" stroke-width="1"/>
    <text x="10" y="15" text-anchor="middle" font-size="8" font-weight="700" fill="#22c55e">1</text>
    <text x="26" y="10" class="lifecycle-label" fill="#86efac">Place Bid</text>
    <text x="26" y="22" class="lifecycle-sub">Commitment hash only -- NO token transfer</text>
    <text x="26" y="33" class="box-detail" fill="#22c55e">Privacy: Bid amount completely hidden</text>
    <rect x="230" y="-2" width="60" height="18" rx="4" fill="#052e16" stroke="#22c55e" stroke-width="0.5"/>
    <text x="260" y="11" text-anchor="middle" font-size="8" fill="#4ade80">SEALED</text>
  </g>

  <!-- Arrow down -->
  <line x1="875" y1="362" x2="875" y2="375" stroke="#475569" stroke-width="1" marker-end="url(#arrowhead-gray)"/>

  <!-- Phase 2: Reveal Bid -->
  <g transform="translate(865, 378)">
    <circle cx="10" cy="12" r="8" fill="#eab308" opacity="0.15" stroke="#eab308" stroke-width="1"/>
    <text x="10" y="15" text-anchor="middle" font-size="8" font-weight="700" fill="#eab308">2</text>
    <text x="26" y="10" class="lifecycle-label" fill="#fde68a">Reveal + Escrow</text>
    <text x="26" y="22" class="lifecycle-sub">Prove commitment -- Lock tokens atomically</text>
    <text x="26" y="33" class="box-detail" fill="#eab308">SealedBid consumed -- EscrowReceipt created</text>
    <rect x="230" y="-2" width="60" height="18" rx="4" fill="#422006" stroke="#eab308" stroke-width="0.5"/>
    <text x="260" y="11" text-anchor="middle" font-size="8" fill="#fbbf24">REVEAL</text>
  </g>

  <!-- Arrow down -->
  <line x1="875" y1="415" x2="875" y2="428" stroke="#475569" stroke-width="1" marker-end="url(#arrowhead-gray)"/>

  <!-- Phase 3: Finalize -->
  <g transform="translate(865, 431)">
    <circle cx="10" cy="12" r="8" fill="#8b5cf6" opacity="0.15" stroke="#8b5cf6" stroke-width="1"/>
    <text x="10" y="15" text-anchor="middle" font-size="8" font-weight="700" fill="#8b5cf6">3</text>
    <text x="26" y="10" class="lifecycle-label" fill="#c4b5fd">Finalize Auction</text>
    <text x="26" y="22" class="lifecycle-sub">Verify reserve hash -- Determine winner</text>
    <text x="26" y="33" class="box-detail" fill="#8b5cf6">Settlement proof stored on-chain (BHP256)</text>
    <rect x="230" y="-2" width="60" height="18" rx="4" fill="#1e1b4b" stroke="#8b5cf6" stroke-width="0.5"/>
    <text x="260" y="11" text-anchor="middle" font-size="8" fill="#a78bfa">SETTLE</text>
  </g>

  <!-- Arrow down -->
  <line x1="875" y1="468" x2="875" y2="480" stroke="#475569" stroke-width="1" marker-end="url(#arrowhead-gray)"/>

  <!-- Phase 4: Claim/Refund -->
  <g transform="translate(865, 483)">
    <circle cx="10" cy="12" r="8" fill="#06b6d4" opacity="0.15" stroke="#06b6d4" stroke-width="1"/>
    <text x="10" y="15" text-anchor="middle" font-size="8" font-weight="700" fill="#06b6d4">4</text>
    <text x="26" y="10" class="lifecycle-label" fill="#67e8f9">Claim / Refund</text>
    <text x="26" y="22" class="lifecycle-sub">Winner claims item -- Losers reclaim escrow</text>
    <text x="26" y="33" class="box-detail" fill="#06b6d4">WinnerCertificate + SellerReceipt created</text>
  </g>

  <!-- ═══════════════ ALEO TESTNET BAR ═══════════════ -->
  <rect x="30" y="540" width="790" height="55" rx="10" fill="#111827" stroke="#334155" stroke-width="0.6"/>
  <rect x="30" y="540" width="790" height="2" rx="1" fill="url(#title-grad)" opacity="0.4"/>

  <!-- Aleo logo placeholder -->
  <circle cx="62" cy="568" r="14" fill="none" stroke="#06b6d4" stroke-width="1" opacity="0.4"/>
  <text x="62" y="572" text-anchor="middle" font-size="10" font-weight="700" fill="#06b6d4">A</text>

  <text x="86" y="562" class="box-title" fill="#e2e8f0" font-size="14">Aleo Testnet</text>
  <text x="86" y="580" class="box-sub">Zero-Knowledge Execution -- SnarkVM -- Proof Verification -- Block Production</text>

  <!-- Network stats -->
  <g transform="translate(520, 555)">
    <rect x="0" y="0" width="72" height="30" rx="5" fill="#0f172a"/>
    <text x="36" y="14" text-anchor="middle" class="stat" fill="#06b6d4">~4s</text>
    <text x="36" y="25" text-anchor="middle" class="stat-label">Block Time</text>

    <rect x="82" y="0" width="72" height="30" rx="5" fill="#0f172a"/>
    <text x="118" y="14" text-anchor="middle" class="stat" fill="#8b5cf6">Groth16</text>
    <text x="118" y="25" text-anchor="middle" class="stat-label">Proof Sys</text>

    <rect x="164" y="0" width="72" height="30" rx="5" fill="#0f172a"/>
    <text x="200" y="14" text-anchor="middle" class="stat" fill="#22c55e">UTXO</text>
    <text x="200" y="25" text-anchor="middle" class="stat-label">Model</text>
  </g>

  <!-- Arrow: Smart Contracts → Testnet -->
  <line x1="580" y1="520" x2="580" y2="540" stroke="#8b5cf6" stroke-width="1.2" marker-end="url(#arrowhead-purple)"/>

  <!-- Arrow: Backend → Explorer API → Testnet -->
  <path d="M 175 520 L 175 568 L 340 568" stroke="#22c55e" stroke-width="0.8" stroke-dasharray="4,3" marker-end="url(#arrowhead-green)" opacity="0.6"/>
  <text x="210" y="562" class="box-detail" fill="#22c55e">Explorer API</text>

  <!-- ═══════════════ PRIVACY WALL ═══════════════ -->
  <rect x="30" y="615" width="1140" height="170" rx="12" fill="#111827" stroke="#334155" stroke-width="0.5" opacity="0.5"/>
  <text x="54" y="640" class="section-label" fill="#94a3b8">PRIVACY ARCHITECTURE</text>

  <!-- Public vs Private -->
  <g transform="translate(54, 655)">
    <!-- Private side -->
    <rect x="0" y="0" width="540" height="110" rx="8" fill="#022c22" opacity="0.3" stroke="#22c55e" stroke-width="0.5" stroke-opacity="0.3"/>
    <text x="12" y="18" font-size="10" font-weight="700" fill="#4ade80" letter-spacing="1">PRIVATE (ZK-Protected)</text>

    <g transform="translate(12, 30)">
      <circle cx="5" cy="5" r="3" fill="#22c55e" opacity="0.4"/>
      <text x="14" y="8" class="box-detail" fill="#86efac">Bid amounts during sealed phase (encrypted in SealedBid record)</text>

      <circle cx="5" cy="22" r="3" fill="#22c55e" opacity="0.4"/>
      <text x="14" y="25" class="box-detail" fill="#86efac">Bidder identities (never stored on-chain, only in off-chain transition scope)</text>

      <circle cx="5" cy="39" r="3" fill="#22c55e" opacity="0.4"/>
      <text x="14" y="42" class="box-detail" fill="#86efac">Seller address (stored as BHP256 hash -- computationally infeasible to reverse)</text>

      <circle cx="5" cy="56" r="3" fill="#22c55e" opacity="0.4"/>
      <text x="14" y="59" class="box-detail" fill="#86efac">Payment records (transfer_public_to_private -- encrypted UTXO credits)</text>

      <circle cx="5" cy="73" r="3" fill="#22c55e" opacity="0.4"/>
      <text x="14" y="76" class="box-detail" fill="#86efac">Winner identity (self-disclosed via prove_won_auction ZK proof only)</text>
    </g>

    <!-- Public side -->
    <rect x="560" y="0" width="540" height="110" rx="8" fill="#1e1b4b" opacity="0.2" stroke="#8b5cf6" stroke-width="0.5" stroke-opacity="0.3"/>
    <text x="572" y="18" font-size="10" font-weight="700" fill="#a78bfa" letter-spacing="1">PUBLIC (Intentional / Necessary)</text>

    <g transform="translate(572, 30)">
      <circle cx="5" cy="5" r="3" fill="#8b5cf6" opacity="0.4"/>
      <text x="14" y="8" class="box-detail" fill="#c4b5fd">Bid commitment hashes (BHP256 -- cannot derive amount)</text>

      <circle cx="5" cy="22" r="3" fill="#8b5cf6" opacity="0.4"/>
      <text x="14" y="25" class="box-detail" fill="#c4b5fd">Revealed bid amounts (intentional -- required for settlement)</text>

      <circle cx="5" cy="39" r="3" fill="#8b5cf6" opacity="0.4"/>
      <text x="14" y="42" class="box-detail" fill="#c4b5fd">Auction metadata (status, deadlines, bid count -- no sensitive data)</text>

      <circle cx="5" cy="56" r="3" fill="#8b5cf6" opacity="0.4"/>
      <text x="14" y="59" class="box-detail" fill="#c4b5fd">Settlement proofs (BHP256 hash -- tamper-evident, publicly verifiable)</text>

      <circle cx="5" cy="73" r="3" fill="#8b5cf6" opacity="0.4"/>
      <text x="14" y="76" class="box-detail" fill="#c4b5fd">Reserve price hash (disclosed at finalize, after all bids revealed)</text>
    </g>
  </g>

  <!-- ═══════════════ DATA FLOW LABELS ═══════════════ -->
  <!-- Label: Frontend ↔ Backend -->
  <rect x="40" y="228" width="80" height="16" rx="4" fill="#0f172a" stroke="#1e293b" stroke-width="0.5"/>
  <text x="80" y="239" text-anchor="middle" class="box-detail" fill="#64748b">HTTP / JSON</text>

  <!-- Label: Wallet → Chain -->
  <rect x="535" y="254" width="88" height="16" rx="4" fill="#0f172a" stroke="#1e293b" stroke-width="0.5"/>
  <text x="579" y="265" text-anchor="middle" class="box-detail" fill="#8b5cf6">Transactions</text>
</svg>